<?xml version="1.0"?>
<svg width="384" height="512" xmlns="http://www.w3.org/2000/svg" xmlns:svg="http://www.w3.org/2000/svg" xmlns:se="http://svg-edit.googlecode.com" class="svg-inline--fa fa-child fa-w-12" data-icon="child" data-prefix="fas">

 <g class="layer">
  <title>Layer 1</title>
  <path d="m125.687518,83.546877c0,-35.648702 28.121679,-64.546876 62.812499,-64.546876s62.812499,28.898174 62.812499,64.546876c0,35.647805 -28.121679,64.546876 -62.812499,64.546876s-62.812499,-28.899071 -62.812499,-64.546876zm222.135531,1.230873c-10.901458,-11.203365 -28.577942,-11.203365 -39.4794,0l-75.573905,77.659754l-88.540324,0l-75.573033,-77.659754c-10.901458,-11.203365 -28.577942,-11.203365 -39.4794,0c-10.902331,11.203365 -10.902331,29.367036 0,40.570401l82.552199,84.830732l0,239.133626c0,15.843569 12.498815,28.687501 27.916666,28.687501l13.958333,0c15.417851,0 27.916666,-12.843932 27.916666,-28.687501l0,-100.406252l13.958333,0l0,100.406252c0,15.843569 12.498815,28.687501 27.916666,28.687501l13.958333,0c15.417851,0 27.916666,-12.843932 27.916666,-28.687501l0,-239.133626l82.552199,-84.831629c10.902331,-11.203365 10.902331,-29.366139 0,-40.569505z" fill="#0065fc" id="svg_1"/>
 </g>
</svg>