<?xml version="1.0"?>
<svg width="576" height="512" xmlns="http://www.w3.org/2000/svg" xmlns:svg="http://www.w3.org/2000/svg" xmlns:se="http://svg-edit.googlecode.com" class="svg-inline--fa fa-dog fa-w-18" data-icon="dog" data-prefix="fas">

 <g class="layer">
  <title>Layer 1</title>
  <path d="m299.990195,205.59911l141.447305,50.649541l0,206.617967a15.09375,15.133383 0 0 1 -15.09375,15.133383l-60.375,0a15.09375,15.133383 0 0 1 -15.09375,-15.133383l0,-105.93368l-150.9375,0l0,105.93368a15.09375,15.133383 0 0 1 -15.09375,15.133383l-60.375,0a15.09375,15.133383 0 0 1 -15.09375,-15.133383l0,-202.32387c-35.055234,-12.532333 -60.375,-45.806858 -60.375,-85.210404a30.1875,30.266766 0 0 1 60.375,0a30.244102,30.323516 0 0 0 30.1875,30.266766l160.427695,0zm232.009805,-105.93368l0,30.266766a60.375,60.533531 0 0 1 -60.375,60.533531l-30.1875,0l0,33.65286l-120.75,-43.234183l0,-141.752505c0,-13.478169 16.244648,-20.231441 25.763145,-10.69741l25.734844,25.830793l50.592363,0c10.292051,0 22.404785,7.491024 26.998945,16.731846l6.754453,13.534919l60.375,0a15.09375,15.133383 0 0 1 15.09375,15.133383zm-105.65625,0a15.09375,15.133383 0 1 0 -15.09375,15.133383a15.09375,15.133383 0 0 0 15.09375,-15.133383z" fill="#0065fc" id="svg_1"/>
 </g>
</svg>