<?xml version="1.0" encoding="UTF-8"?>
<svg xmlns="http://www.w3.org/2000/svg" xmlns:xlink="http://www.w3.org/1999/xlink" width="45pt" height="60pt" viewBox="0 0 45 60" version="1.1">
<g id="surface1">
<path style=" stroke:none;fill-rule:nonzero;fill:rgb(0%,0%,0%);fill-opacity:1;" d="M 20.1875 58.789062 C 3.160156 34.105469 0 31.570312 0 22.5 C 0 10.074219 10.074219 0 22.5 0 C 34.925781 0 45 10.074219 45 22.5 C 45 31.570312 41.839844 34.105469 24.8125 58.789062 C 23.695312 60.402344 21.304688 60.402344 20.1875 58.789062 Z M 22.5 31.875 C 27.675781 31.875 31.875 27.675781 31.875 22.5 C 31.875 17.324219 27.675781 13.125 22.5 13.125 C 17.324219 13.125 13.125 17.324219 13.125 22.5 C 13.125 27.675781 17.324219 31.875 22.5 31.875 Z M 22.5 31.875 "/>
</g>
</svg>
