<?xml version="1.0"?>
<svg width="18" height="15" xmlns="http://www.w3.org/2000/svg" xmlns:svg="http://www.w3.org/2000/svg">

 <g class="layer">
  <title>Layer 1</title>
  <g id="surface1">
   <path d="m17.46875,1.59375c-1.08984,-0.47656 -2.17969,-0.65625 -3.27344,-0.65625c-3.46484,0 -6.92578,1.82813 -10.39062,1.82813c-0.8711,0 -1.73828,-0.11719 -2.60547,-0.40235c-0.09766,-0.03515 -0.19531,-0.05078 -0.29297,-0.05078c-0.48437,0 -0.90625,0.39063 -0.90625,0.93359l0,9.29688c0,0.36719 0.20313,0.71875 0.53125,0.85937c1.08984,0.48047 2.17969,0.66016 3.27344,0.66016c3.46484,0 6.92578,-1.82812 10.39062,-1.82812c0.8711,0 1.73828,0.11718 2.60547,0.40234c0.09766,0.03516 0.19531,0.04687 0.29297,0.04687c0.48438,0 0.90625,-0.38671 0.90625,-0.92968l0,-9.29688c0,-0.36719 -0.20312,-0.71875 -0.53125,-0.86328zm-16.11719,2.28125c0.5625,0.14453 1.15625,0.21875 1.76172,0.26172c-0.16406,0.85937 -0.89062,1.50781 -1.76172,1.50781l0,-1.76953zm0,8.34766l0,-1.39844c0.96485,0 1.7461,0.79687 1.78907,1.79687c-0.63282,-0.05078 -1.22657,-0.18359 -1.78907,-0.39843zm7.64844,-1.91016c-1.24219,0 -2.25,-1.25781 -2.25,-2.8125c0,-1.55469 1.00781,-2.8125 2.25,-2.8125c1.24219,0 2.25,1.25781 2.25,2.8125c0,1.55469 -1.00781,2.8125 -2.25,2.8125zm7.64844,0.8125c-0.49219,-0.12891 -1.00391,-0.19922 -1.52735,-0.24609c0.16797,-0.76563 0.77344,-1.34375 1.52735,-1.44532l0,1.69141zm0,-6.91406c-0.86719,-0.11719 -1.54297,-0.8711 -1.56641,-1.80469c0.54688,0.0625 1.07031,0.18359 1.56641,0.37109l0,1.4336zm0,0" fill="#0065fc" fill-rule="nonzero" id="svg_1"/>
  </g>
 </g>
</svg>