<?xml version="1.0" encoding="UTF-8"?>
<svg xmlns="http://www.w3.org/2000/svg" xmlns:xlink="http://www.w3.org/1999/xlink" width="18pt" height="15pt" viewBox="0 0 18 15" version="1.1">
<g id="surface1">
<path style=" stroke:none;fill-rule:nonzero;fill:rgb(0%,0%,0%);fill-opacity:1;" d="M 17.46875 1.59375 C 16.378906 1.117188 15.289062 0.9375 14.195312 0.9375 C 10.730469 0.9375 7.269531 2.765625 3.804688 2.765625 C 2.933594 2.765625 2.066406 2.648438 1.199219 2.363281 C 1.101562 2.328125 1.003906 2.3125 0.90625 2.3125 C 0.421875 2.3125 0 2.703125 0 3.246094 L 0 12.542969 C 0 12.910156 0.203125 13.261719 0.53125 13.402344 C 1.621094 13.882812 2.710938 14.0625 3.804688 14.0625 C 7.269531 14.0625 10.730469 12.234375 14.195312 12.234375 C 15.066406 12.234375 15.933594 12.351562 16.800781 12.636719 C 16.898438 12.671875 16.996094 12.683594 17.09375 12.683594 C 17.578125 12.683594 18 12.296875 18 11.753906 L 18 2.457031 C 18 2.089844 17.796875 1.738281 17.46875 1.59375 Z M 1.351562 3.875 C 1.914062 4.019531 2.507812 4.09375 3.113281 4.136719 C 2.949219 4.996094 2.222656 5.644531 1.351562 5.644531 Z M 1.351562 12.222656 L 1.351562 10.824219 C 2.316406 10.824219 3.097656 11.621094 3.140625 12.621094 C 2.507812 12.570312 1.914062 12.4375 1.351562 12.222656 Z M 9 10.3125 C 7.757812 10.3125 6.75 9.054688 6.75 7.5 C 6.75 5.945312 7.757812 4.6875 9 4.6875 C 10.242188 4.6875 11.25 5.945312 11.25 7.5 C 11.25 9.054688 10.242188 10.3125 9 10.3125 Z M 16.648438 11.125 C 16.15625 10.996094 15.644531 10.925781 15.121094 10.878906 C 15.289062 10.113281 15.894531 9.535156 16.648438 9.433594 Z M 16.648438 4.210938 C 15.78125 4.09375 15.105469 3.339844 15.082031 2.40625 C 15.628906 2.46875 16.152344 2.589844 16.648438 2.777344 Z M 16.648438 4.210938 "/>
</g>
</svg>
