<?xml version="1.0"?>
<svg width="20" height="20" xmlns="http://www.w3.org/2000/svg" xmlns:svg="http://www.w3.org/2000/svg">

 <g class="layer">
  <title>Layer 1</title>
  <g id="surface1">
   <path d="m19.72656,17.29297l-3.89453,-3.89453c-0.17578,-0.17578 -0.41406,-0.27344 -0.66406,-0.27344l-0.63672,0c1.07813,-1.37891 1.71875,-3.11328 1.71875,-5c0,-4.48828 -3.63672,-8.125 -8.125,-8.125c-4.48828,0 -8.125,3.63672 -8.125,8.125c0,4.48828 3.63672,8.125 8.125,8.125c1.88672,0 3.62109,-0.64062 5,-1.71875l0,0.63672c0,0.25 0.09766,0.48828 0.27344,0.66406l3.89453,3.89453c0.36719,0.36719 0.96094,0.36719 1.32422,0l1.10547,-1.10547c0.36718,-0.36718 0.36718,-0.96093 0.0039,-1.32812zm-11.60156,-4.16797c-2.76172,0 -5,-2.23437 -5,-5c0,-2.76172 2.23438,-5 5,-5c2.76172,0 5,2.23438 5,5c0,2.76172 -2.23437,5 -5,5zm0,0" fill="#ffffff" fill-rule="nonzero" id="svg_1"/>
  </g>
 </g>
</svg>